<svg xmlns="http://www.w3.org/2000/svg" viewBox="-0.1 -0.126 11.17 8.064">
	<path d="M 0 0 H 10.966 Q 10.646 0.614 9.645 0.805 T 8.089 1.786 Q 8.132 2.809 7.194 2.979 Q 5.809 2.936 5.361 3.917 Q 5.34 4.79 3.252 5.536 Q 1.76 5.941 1.589 6.389 Q 1.099 7.39 0.332 7.582 Q 0.162 7.667 0.012 7.838 V 4.897 Q 0.268 4.087 0.907 4.066 Q 3.784 3.597 4.317 2.148 Q 4.701 1.146 5.979 1.082 Q 7.151 0.805 7.322 0.038 H 4.019 Q 2.506 0.358 2.399 1.04 Q 2.378 1.53 0.012 2.425 V -0.026 V 4.918" fill="#8197b8"/>
</svg>